<svg width="308" height="48" viewBox="0 0 308 48" fill="none" xmlns="http://www.w3.org/2000/svg">
<path d="M0 28.048V31H24.768V28.048H0ZM0 18.724V21.712H21.312V18.724H0ZM0 9.4V12.388H24.768V9.4H0ZM55.2836 12.388V9.4H36.6356C35.9156 9.4 35.1956 9.544 34.5476 9.796C32.1356 10.66 30.5156 13 30.5156 15.556C30.5156 18.94 33.2516 21.712 36.6356 21.712H50.8196C50.8556 21.712 50.8556 21.712 50.8916 21.712C52.5836 21.712 53.9876 23.116 54.0236 24.844C54.0236 24.844 54.0236 24.844 54.0236 24.88V24.916C53.9876 26.644 52.5836 28.048 50.8196 28.048H32.2076V31H50.8196C51.5396 31 52.2596 30.892 52.9436 30.64C55.3556 29.776 56.9756 27.436 56.9756 24.88C56.9756 21.496 54.2036 18.724 50.8196 18.724H36.6356H36.5996C34.8716 18.724 33.5036 17.32 33.4676 15.592C33.4676 15.592 33.4676 15.592 33.4676 15.556V15.52C33.5036 13.792 34.9076 12.388 36.6356 12.388H55.2836ZM88.6731 9.4H62.7891V12.388H74.2371V31H77.2251V12.388H88.6731V9.4ZM124.057 31H127.657L112.717 9.4H109.369L94.4648 31H98.0648L111.061 12.208L122.005 28.048H106.633L104.761 31H124.057ZM159.302 9.4H133.418V12.388H144.866V31H147.854V12.388H159.302V9.4ZM165.094 28.048V31H189.862V28.048H165.094ZM165.094 18.724V21.712H186.406V18.724H165.094ZM165.094 9.4V12.388H189.862V9.4H165.094ZM221.493 9.4H195.609V12.388H207.057V31H210.045V12.388H221.493V9.4ZM227.285 9.4V31H230.237V9.4H227.285ZM265.596 31H269.196L254.256 9.4H250.908L236.004 31H239.604L252.6 12.208L263.544 28.048H248.172L246.3 31H265.596ZM298.573 31V28.048H277.909V9.4H274.957V31H298.573Z" fill="white"/>
<path d="M304.348 31H307.3V28.048H304.348V31Z" fill="#FF6E30"/>
</svg>
